<?xml version="1.0" encoding="utf-8"?>
<!-- Generator: Adobe Illustrator 22.0.1, SVG Export Plug-In . SVG Version: 6.00 Build 0)  -->
<svg version="1.1" id="图层_1" xmlns="http://www.w3.org/2000/svg" xmlns:xlink="http://www.w3.org/1999/xlink" x="0px" y="0px"
	 viewBox="0 0 455.1 125.6" style="enable-background:new 0 0 455.1 125.6;" xml:space="preserve">
<style type="text/css">
	.st0{fill-rule:evenodd;clip-rule:evenodd;fill:#171C61;}
	.st1{fill-rule:evenodd;clip-rule:evenodd;fill:url(#SVGID_1_);}
	.st2{fill-rule:evenodd;clip-rule:evenodd;fill:#E7211A;}
	.st3{fill:#595757;}
	.st4{fill-rule:evenodd;clip-rule:evenodd;fill:#B5B5B6;}
	.st5{fill-rule:evenodd;clip-rule:evenodd;fill:none;stroke:#595757;stroke-miterlimit:10;stroke-dasharray:1,1;}
	.st6{fill:#E60012;}
	.st7{fill-rule:evenodd;clip-rule:evenodd;fill:url(#SVGID_2_);}
	.st8{fill:#171C61;}
	.st9{fill-rule:evenodd;clip-rule:evenodd;fill:url(#SVGID_3_);}
	.st10{fill-rule:evenodd;clip-rule:evenodd;fill:url(#SVGID_4_);}
	.st11{fill:#FFFFFF;}
	.st12{fill:none;stroke:#FFFFFF;stroke-width:0.867;stroke-miterlimit:10;}
	.st13{fill:#E7211A;}
	.st14{fill:url(#SVGID_5_);}
</style>
<g>
	<g>
		<g>
			<path class="st8" d="M196.1,60.6l0.7-4.6c1.2-0.5,2.2-1.2,2.9-2.3c0.6-0.8,1.2-2,1.8-3.5h4.7l-0.7,1.6h31.1c2.3,0,3.9,0.6,5,1.8
				c1,1.2,1.4,2.7,1.1,4.6l-1.2,8.4c-0.3,2-1.2,3.7-2.6,4.9c-1.3,1.1-3.1,1.7-5.3,1.7l-6,0l0.7-4.6h5.1c2.2,0,3.4-1.1,3.7-3.2
				l0.9-6.3c0.1-0.8,0-1.5-0.5-2c-0.4-0.5-1.1-0.8-2.1-0.8h-32.2c-0.9,1.1-1.7,2-2.5,2.5C199.4,59.7,197.9,60.3,196.1,60.6z
				 M194.6,73.5l0.7-4.6c2.9,0,5.3-1.3,7.2-3.8l5.2-6.6h5.3l-5.9,7.7c-1.9,2.5-3.8,4.3-5.7,5.4c-1.5,0.9-3,1.4-4.6,1.6
				C196.2,73.3,195.4,73.4,194.6,73.5z M200.1,44.5l1.3-8.6c0.5-3.3,2.3-4.9,5.5-4.9h32.2c2,0,3.3,0.3,4.1,0.9
				c1,0.8,1.4,1.9,1.2,3.3l-1.5,10c-0.2,1.5-0.9,2.7-2.1,3.5c-0.9,0.6-1.9,0.9-3.2,0.9h-34.3c-1.5,0-2.5-0.7-3.2-2.1
				C199.9,46.8,199.9,45.8,200.1,44.5z M205.7,37.9h33.6l0.1-0.9c0.1-1-0.4-1.4-1.5-1.4h-30.4c-0.4,0-0.7,0.1-1.1,0.4
				c-0.4,0.3-0.6,0.6-0.6,1L205.7,37.9z M238.6,42.4h-33.6l-0.1,0.9c-0.1,0.6,0,1,0.2,1.2c0.2,0.2,0.8,0.4,1.7,0.4h29.7
				c1.2,0,1.8-0.5,2-1.5L238.6,42.4z M209.9,73.3l0.7-4.6c1.6-0.1,3-0.5,4.2-1.2c1.2-0.7,2.4-1.8,3.7-3.5l4.4-5.6h5.3l-5.2,6.7
				c-1.4,1.8-2.5,3.1-3.2,3.9C217.2,71.6,213.9,73.1,209.9,73.3z"/>
			<path class="st8" d="M251.6,38.1l0.7-4.8h7l0.3-2.3h4.6l-0.3,2.3h23l0.3-2.3h4.6l-0.3,2.3h6.9l-0.7,4.8h-6.9l-0.5,3.7h-4.6
				l0.5-3.7h-23l-0.5,3.7h-4.6l0.5-3.7H251.6z M246.7,73.3l0.7-4.7c3.8-0.3,7-0.9,9.6-1.8c2.7-0.9,6.1-2.5,10.2-4.9
				c-3.1-3.4-5.6-6.7-7.5-9.8c-1.4-2.3-2.8-4.9-4.1-7.9h5.8c1.7,3.4,3.3,6.2,4.9,8.3c1.5,2.1,3.3,4.2,5.5,6.2c3.4-2.6,6.2-5,8.4-7.3
				c1.8-1.9,3.9-4.3,6.2-7.2h5.8c-3.1,4.1-5.8,7.4-8.1,9.8c-2.1,2.2-5,4.8-8.7,7.9c3.4,2.3,6.3,3.9,8.7,4.8c2.5,0.9,5.6,1.5,9.3,1.8
				l-0.7,4.7c-4.2-0.2-7.9-0.8-11.2-2c-3.5-1.3-7-3.3-10.6-6.1c-4.5,2.8-8.7,4.9-12.5,6.1C254.7,72.5,250.8,73.2,246.7,73.3z"/>
			<path class="st8" d="M298.7,73.6l0.7-4.6c1,0,1.7-0.4,2.3-1.3c0.3-0.5,0.7-1.7,1.2-3.5h4.6c-0.6,2.7-1.4,4.7-2.3,6
				c-0.9,1.3-2,2.2-3.2,2.7C301,73.2,300,73.4,298.7,73.6z M300.3,62.5l0.7-4.6h2l2.8-19.5h-2l0.7-4.6h2l0.4-2.8h4.6l-0.4,2.8h11.2
				l0.4-2.8h4.6l-0.4,2.8h2l-0.7,4.6h-2l-2.8,19.5h2.1l-0.7,4.6H300.3z M310,41.8h11.2l0.5-3.4h-11.2L310,41.8z M308.8,49.9h11.2
				l0.5-3.4h-11.2L308.8,49.9z M307.7,57.9h11.2l0.5-3.4h-11.2L307.7,57.9z M317.3,64.1h4.7l0,0.9c0,1.8,0.1,2.9,0.5,3.3
				c0.3,0.4,0.8,0.6,1.5,0.6l-0.7,4.7c-2.5-0.2-4.2-1.2-5.2-3c-0.6-1.1-0.8-2.4-0.8-3.9c0-0.3,0-0.9,0-1.7
				C317.3,64.8,317.3,64.5,317.3,64.1z M324.4,73.6l0.7-4.6c0.7,0,1.1-0.3,1.2-0.9l4.4-30.2c0.3-2.2,1.3-3.9,2.9-5.2
				c1.4-1,3-1.5,5-1.5H351l-0.7,4.6h-11.7c-0.8,0-1.5,0.2-2.1,0.6c-0.7,0.5-1.1,1.3-1.2,2.2l-0.6,4.4h14.7l-0.7,4.5h-2.9l-3.8,25.9
				h-4.6l3.8-25.9h-7.1L331,67.5C330.5,71.1,328.3,73.1,324.4,73.6z"/>
			<path class="st8" d="M350.9,73.4l0.6-4.3c0.1,0,0.1,0,0.1,0c0.6,0,1.1-0.8,1.3-2.4l3.2-19.9h4.2l-2.8,18.1
				c-0.4,2.4-0.7,4-1.1,4.9C355.6,71.9,353.8,73.1,350.9,73.4z M355.7,44l0.7-4.5h6.9l0.5-3.5h-6.8l0.6-4.2h17.6l-0.6,4.2h-6.2
				l-0.5,3.5h6.2l-0.7,4.5h-6.2l-4.3,29.6h-4.6l4.3-29.6H355.7z M365,73.6l3.9-26.9h3.9l-3.9,26.9H365z M373.2,65.4l0.7-4.8h17.3
				l4.3-29.6h4.6l-4.3,29.6h3.2l-0.7,4.8h-3.2l-1.2,8.2h-4.6l1.2-8.2H373.2z M377,39.9l0.7-4.8h13.8l-0.7,4.8H377z M375.1,53
				l0.7-4.8h13.8l-0.7,4.8H375.1z"/>
			<path class="st8" d="M405.6,58.7l0.7-4.9c1.6-0.2,2.9-0.5,3.9-0.9c0.6-0.2,1.5-0.6,2.8-1.2l1.7-11.6h-6.2l0.7-4.9h6.2l0.6-4.2
				h4.6l-0.6,4.2h5.5l-0.7,4.9h-5.5L418,49c1.9-0.9,3.7-1.6,5.4-1.9l-0.7,4.5c-1.9,0.7-3.7,1.6-5.5,2.6l-1.8,12.5
				c-0.4,2.5-1.5,4.5-3.4,5.7c-1.2,0.8-2.9,1.2-5,1.2c-0.5,0-1.2,0-2.2-0.1l0.7-4.6c0.5,0,0.9-0.1,1.2-0.1c1.5,0,2.5-0.3,3.1-0.8
				c0.6-0.5,0.9-1.3,1.1-2.5l1.2-8.5c-1.9,0.7-3.3,1.1-4.1,1.3C407.6,58.5,406.8,58.6,405.6,58.7z M422.2,73.6l0.7-4.8
				c2.8-0.9,6.1-2.4,10-4.5c-2.8-2.9-4.7-5.3-5.7-7c-0.5-0.8-1-1.9-1.7-3.3h5.3c1.2,1.8,2.3,3.2,3.3,4.4c0.7,0.7,1.7,1.7,3.1,3.1
				c3.1-2.1,5.8-4.3,8.1-6.5c1.5-1.4,2.3-2.4,2.3-2.9c0-0.3-0.1-0.5-0.3-0.7c-0.2-0.1-0.8-0.1-2-0.1h-19.8l0.7-4.7h11.3l1-6.9h-11.3
				l0.7-4.6h11.3l0.6-3.9h4.6l-0.6,3.9h11.3l-0.7,4.6h-11.3l-1,6.9c3.3,0,5.3,0,6.1,0.1c1.7,0.2,2.9,0.9,3.6,2.2
				c0.5,0.9,0.7,1.9,0.5,3c-0.2,1.7-1.4,3.5-3.4,5.5c-2.1,2-4.8,4.3-8.2,6.9c1.8,1.3,3.3,2.2,4.4,2.8c1.3,0.6,2.9,1.3,5,1.8
				l-0.8,4.6c-3-0.9-5.4-1.8-7.3-2.8c-1.4-0.8-3.3-2-5.6-3.6c-2.8,1.7-5.1,3-7.1,3.9C427.3,71.9,425,72.8,422.2,73.6z"/>
		</g>
		<g>
			<path class="st8" d="M195.5,80.8L194,91h-2.1l1.5-10.2H195.5z"/>
			<path class="st8" d="M204,80.8h2L204.6,91h-2.1l-3.1-7.3l-1.1,7.3h-2l1.5-10.2l2.3,0l3,7.1L204,80.8z"/>
			<path class="st8" d="M212.5,82.6l-1.2,8.4h-2.1l1.2-8.4h-3.1l0.3-1.8h8.3l-0.3,1.8H212.5z"/>
			<path class="st8" d="M224.9,80.8l-0.3,1.8h-5.4l-0.3,2.1h5l-0.3,1.8h-5l-0.4,2.7h5.7l-0.3,1.8h-7.8l1.5-10.2H224.9z"/>
			<path class="st8" d="M229.3,80.8l-1.2,8.4h5.1l-0.3,1.9h-7.2l1.5-10.2H229.3z"/>
			<path class="st8" d="M238.3,80.8l-1.2,8.4h5.1l-0.3,1.9h-7.2l1.5-10.2H238.3z"/>
			<path class="st8" d="M247.2,80.8L245.7,91h-2.1l1.5-10.2H247.2z"/>
			<path class="st8" d="M253.3,87.2l0.3-1.7h4.3l-0.8,5.5h-1.4l0-1.3c-0.5,0.5-0.9,0.8-1.2,1c-0.6,0.4-1.4,0.5-2.2,0.5
				c-1.3,0-2.4-0.4-3.1-1.3c-0.8-1-1.1-2.3-0.8-4c0.2-1.5,0.8-2.8,1.7-3.8c1.1-1.1,2.4-1.7,4.1-1.7c1.4,0,2.5,0.4,3.3,1.2
				c0.6,0.7,0.9,1.4,0.7,2.2h-2.1c0-0.3-0.1-0.6-0.4-1c-0.4-0.5-0.9-0.7-1.6-0.7c-0.8,0-1.6,0.3-2.2,0.9c-0.7,0.7-1.1,1.6-1.3,2.8
				c-0.2,1.3,0,2.2,0.5,2.8c0.4,0.5,1.1,0.7,1.9,0.7c0.4,0,0.9-0.1,1.3-0.3c0.7-0.4,1.2-1,1.5-1.9H253.3z"/>
			<path class="st8" d="M268.4,80.8l-0.3,1.8h-5.4l-0.3,2.1h5l-0.3,1.8h-5l-0.4,2.7h5.7l-0.3,1.8h-7.8l1.5-10.2H268.4z"/>
			<path class="st8" d="M276.9,80.8h2L277.4,91h-2.1l-3.1-7.3l-1.1,7.3h-2l1.5-10.2l2.3,0l3,7.1L276.9,80.8z"/>
			<path class="st8" d="M285.3,82.6l-1.2,8.4H282l1.2-8.4h-3.1l0.3-1.8h8.3l-0.3,1.8H285.3z"/>
			<path class="st8" d="M300.7,80.8L299.2,91h-2.1l1.5-10.2H300.7z"/>
			<path class="st8" d="M309.3,80.8h2L309.8,91h-2.1l-3.1-7.3l-1.1,7.3h-2l1.5-10.2l2.3,0l3,7.1L309.3,80.8z"/>
			<path class="st8" d="M312.1,91l1.5-10.2h4.5c1.5,0,2.6,0.6,3.1,1.7c0.4,0.8,0.5,1.9,0.3,3.2c-0.2,1.4-0.7,2.5-1.4,3.5
				c-0.9,1.2-2.1,1.9-3.7,1.9H312.1z M315.4,82.5l-1,6.7h2.1c0.8,0,1.5-0.4,2-1.1c0.4-0.6,0.7-1.4,0.9-2.4c0.2-1.3,0.1-2.3-0.4-2.8
				c-0.3-0.3-0.8-0.5-1.5-0.5H315.4z"/>
			<path class="st8" d="M326.2,80.8L324.7,91h-2.1l1.5-10.2H326.2z"/>
			<path class="st8" d="M334.4,80.8h2.2l-5,10.2h-2l-2-10.2h2.3l1.1,7.8L334.4,80.8z"/>
			<path class="st8" d="M340.2,80.8L338.7,91h-2.1l1.5-10.2H340.2z"/>
			<path class="st8" d="M341,91l1.5-10.2h4.5c1.5,0,2.6,0.6,3.1,1.7c0.4,0.8,0.5,1.9,0.3,3.2c-0.2,1.4-0.7,2.5-1.4,3.5
				c-0.9,1.2-2.1,1.9-3.7,1.9H341z M344.3,82.5l-1,6.7h2.1c0.8,0,1.5-0.4,2-1.1c0.4-0.6,0.7-1.4,0.9-2.4c0.2-1.3,0.1-2.3-0.4-2.8
				c-0.3-0.3-0.8-0.5-1.5-0.5H344.3z"/>
			<path class="st8" d="M361.3,80.8l-1,6.7c-0.2,1.3-0.7,2.3-1.6,2.9c-0.8,0.6-1.9,0.9-3.2,0.9c-0.6,0-1.1-0.1-1.6-0.2
				c-0.6-0.2-1.1-0.5-1.5-1c-0.4-0.6-0.6-1.4-0.4-2.5l1-6.8h2.2l-1,6.6c-0.1,0.7,0,1.2,0.3,1.5c0.3,0.3,0.7,0.5,1.2,0.5
				c0.7,0,1.3-0.2,1.6-0.5c0.4-0.3,0.6-0.8,0.7-1.5l1-6.7H361.3z"/>
			<path class="st8" d="M364.7,88.9l-1,2.1h-2.3l5.2-10.2h2.5l2.1,10.2h-2.3l-0.4-2.1H364.7z M365.5,87.1h2.6l-0.7-4L365.5,87.1z"/>
			<path class="st8" d="M376.4,80.8l-1.2,8.4h5.1L380,91h-7.2l1.5-10.2H376.4z"/>
			<path class="st8" d="M390.2,87.8h2.1c-0.1,0.4,0,0.8,0.2,1c0.3,0.4,0.9,0.6,1.7,0.6c0.6,0,1.1-0.1,1.5-0.3
				c0.5-0.2,0.8-0.6,0.8-1.1c0.1-0.4-0.1-0.7-0.4-0.8c-0.2-0.1-0.6-0.3-1.3-0.4l-1.1-0.3c-1.1-0.3-1.8-0.5-2.1-0.8
				c-0.6-0.5-0.8-1.2-0.7-2.2c0.1-0.8,0.4-1.5,1-2c0.8-0.8,1.9-1.2,3.4-1.2c1.4,0,2.4,0.4,3,1.2c0.5,0.6,0.6,1.3,0.5,2.1h-2.1
				c0-0.4-0.1-0.7-0.2-0.9c-0.3-0.4-0.8-0.6-1.7-0.6c-0.5,0-0.9,0.1-1.2,0.3c-0.4,0.2-0.7,0.5-0.7,1c-0.1,0.3,0,0.6,0.3,0.8
				c0.1,0.1,0.4,0.2,0.7,0.3l2.4,0.6c0.8,0.2,1.4,0.5,1.8,0.8c0.5,0.4,0.7,1.1,0.5,1.9c-0.2,1-0.6,1.8-1.4,2.4
				c-0.8,0.6-1.9,0.9-3.1,0.9c-1.7,0-2.8-0.4-3.4-1.2C390.3,89.5,390.1,88.7,390.2,87.8z"/>
			<path class="st8" d="M405.7,82.6l-1.2,8.4h-2.1l1.2-8.4h-3.1l0.3-1.8h8.3l-0.3,1.8H405.7z"/>
			<path class="st8" d="M411.6,88.9l-1,2.1h-2.3l5.2-10.2h2.5L418,91h-2.3l-0.4-2.1H411.6z M412.4,87.1h2.6l-0.7-4L412.4,87.1z"/>
			<path class="st8" d="M419.7,91l1.5-10.2h5c1.1,0,1.9,0.3,2.4,0.9c0.4,0.5,0.5,1,0.4,1.7c-0.1,0.6-0.3,1.1-0.7,1.5
				c-0.2,0.2-0.5,0.4-0.9,0.6c0.5,0.2,0.9,0.6,1.1,1c0.2,0.4,0.2,0.9,0.1,1.5c-0.1,0.4-0.2,0.8-0.4,1.2c-0.2,0.4-0.5,0.7-0.8,1
				c-0.4,0.3-0.8,0.5-1.1,0.7c-0.5,0.2-1.3,0.3-2.2,0.3H419.7z M423,82.5l-0.3,2.2h2.5c0.5,0,0.8-0.1,1.1-0.3
				c0.3-0.2,0.5-0.5,0.6-0.9c0.1-0.4,0-0.7-0.3-0.8c-0.2-0.2-0.6-0.3-1.1-0.3H423z M422.4,86.5l-0.4,2.7h2.6c0.5,0,1-0.1,1.3-0.4
				c0.3-0.2,0.5-0.6,0.6-1.1c0.1-0.4,0-0.7-0.3-0.9c-0.3-0.2-0.6-0.3-1.1-0.3H422.4z"/>
			<path class="st8" d="M433.9,80.8l-1.2,8.4h5.1l-0.3,1.9h-7.2l1.5-10.2H433.9z"/>
			<path class="st8" d="M448.3,80.8l-0.3,1.8h-5.4l-0.3,2.1h5l-0.3,1.8h-5l-0.4,2.7h5.7l-0.3,1.8h-7.8l1.5-10.2H448.3z"/>
		</g>
	</g>
	<g>
		<path class="st0" d="M138.7,48.8c3.1-4.5,9.3-6.8,18.4-6.8h21.2l2.8-11.1h-35.9c-0.4,0-0.7,0-1.1,0c-3.4,0.4-6.5,1-9.3,1.8
			c-0.1,0.1-0.3,0.1-0.4,0.1c-5.4,1.9-10.5,5.2-14.8,9.5c-0.6,0.6-1.1,1.3-1.6,2c-0.9,1.2-1.7,2.5-2.5,3.8c-0.6,1-2.3,5.2-2.6,7.7
			c-0.4,4.4,0.5,7.6,2.9,9.5h28.3c1.8,0.1,3,0.5,3.5,1.4c0.7,1.2,0.3,3.6,0,4.7c-0.3,1.1-0.8,1.9-0.8,1.9c-3.1,4.5-9.3,6.8-18.4,6.8
			H107l-2.6,11.1h36c0.4,0,0.7,0,1.1,0c3.4-0.4,6.5-1,9.3-1.8c0.1-0.1,0.3-0.1,0.4-0.1c5.4-1.9,10.5-5.2,14.8-9.5
			c0.6-0.6,1.1-1.3,1.6-2c0.9-1.2,1.7-2.5,2.5-3.8c0.6-1,2.3-5.2,2.6-7.7c0.4-4.4-0.5-7.6-2.9-9.5h-28.3c-1.8-0.1-3-0.5-3.5-1.4
			c-0.7-1.2-0.3-3.6,0-4.7C138.2,49.6,138.7,48.8,138.7,48.8z"/>
		<linearGradient id="SVGID_1_" gradientUnits="userSpaceOnUse" x1="65.2542" y1="2.9261" x2="65.2542" y2="115.7359">
			<stop  offset="0" style="stop-color:#00A0E9"/>
			<stop  offset="0.6788" style="stop-color:#004EA2"/>
			<stop  offset="1" style="stop-color:#171C61"/>
		</linearGradient>
		<path class="st1" d="M87.6,1.5c-12-4.5-26.5,1.7-38.8,14.9c10-8.7,21-12.4,30.5-8.8C97.1,14.2,102.4,44,91.1,74
			c-11.3,30-34.8,48.9-52.6,42.2c-7.1-2.7-12.2-9.1-15.1-17.7c2.5,12.6,8.8,22.1,18.2,25.7c19.7,7.4,46-14,58.8-47.9
			C113.1,42.3,107.4,8.9,87.6,1.5z"/>
		<g>
			<path class="st0" d="M23.6,49c6.2-0.7,8.5-5.5,9.2-7.4L35.2,31h-13c-7.5,0.4-9.7,6.7-10.1,8L9.8,49H23.6z"/>
			<path class="st0" d="M23.2,83L23.2,83l6.5-28.2h-13c-7.3,0.3-9.7,6.4-10.2,7.9L0,91.2h13.3C21.3,90.6,23.2,83,23.2,83z"/>
		</g>
		<g>
			<path class="st2" d="M64.1,49c6.2-0.7,8.5-5.5,9.2-7.4L75.8,31h-13c-7.5,0.4-9.7,6.7-10.1,8l-2.3,10H64.1z"/>
			<path class="st2" d="M63.7,83L63.7,83l6.5-28.2h-13c-7.3,0.3-9.7,6.4-10.2,7.9l-6.6,28.5h13.3C61.9,90.6,63.7,83,63.7,83z"/>
		</g>
	</g>
</g>
</svg>
